<svg width="443" height="485" viewBox="0 0 443 485" fill="none" xmlns="http://www.w3.org/2000/svg">
<g filter="url(#filter0_d)">
<path d="M414.706 133.803C410.027 130.105 404.533 128.063 398.744 126.964C376.379 122.706 354.273 125.25 332.382 130.187C327.001 131.402 322.972 130.391 319.462 126.573C310.841 117.202 300.199 110.511 289.429 104.021C274.693 95.1448 275.238 95.3459 278.702 78.208C285.365 45.2611 278.585 28.2514 256.074 11.268C244.8 2.76173 238.195 2.91618 226.979 11.7139C217.153 19.4217 209.333 29.0149 201.695 38.7801C192.617 50.387 188.413 63.7482 188.46 78.2051C188.48 84.2111 186.691 88.4831 182.176 91.8314C178.697 94.4133 177.82 97.7471 178.732 101.646C179.615 105.42 180.772 109.135 181.911 112.845C182.855 115.928 183.562 119.081 182.869 122.237C182.397 124.388 181.715 126.375 180.879 128.267C176.795 129.645 173.191 131.382 170.056 133.41C169.826 133.375 169.276 133.929 169.276 133.929C153.652 144.548 150.118 162.51 155.883 177.579C155.752 178.48 155.662 179.4 155.636 180.342C155.225 194.099 149.984 206.024 142.048 217.022C139.362 220.743 137.11 224.77 134.596 228.617C128.478 237.989 124.638 248.016 124.702 259.419C124.752 268.222 122.241 276.513 118.267 284.329C110.249 300.1 101.76 315.612 90.2322 329.183C78.008 343.57 68.0329 359.28 60.4904 376.592C57.8917 382.563 54.5181 388.214 51.2727 393.885C46.1395 402.854 39.1272 409.385 28.3743 411.095C23.7771 411.827 19.7626 414.26 15.7917 416.603C10.105 419.957 8.75906 423.133 11.081 429.437C15.1188 440.402 22.9147 447.664 34.0377 451.307C43.0019 454.242 52.2283 453.982 61.4052 452.907C70.4888 451.84 71.6978 450.75 73.6177 441.746C75.4065 433.362 79.8114 426.639 87.5257 423.498C94.6779 420.584 97.5271 415.388 99.9451 408.907C104.114 397.737 110.52 394.083 122.532 395.114C126.168 395.426 127.779 397.026 126.68 400.663C126.072 402.682 125.358 404.684 124.536 406.628C122.197 412.159 119.508 417.553 117.445 423.183C112.411 436.926 118.887 447.557 133.212 449.614C135.295 449.914 137.346 450.549 139.362 451.188C152.684 455.398 165.174 453.239 177.179 446.563C181.881 443.949 183.828 440.196 183.729 434.863C183.53 424.229 182.027 413.765 180.317 403.306C179.233 396.682 181.447 394.083 188.195 394.141C190.123 394.158 192.078 394.432 193.966 394.843C199.114 395.959 199.798 397.638 197.109 402.149C192.646 409.644 192.442 411.282 199.294 416.702C207.175 422.938 211.99 430.719 214.767 440.137C215.763 443.515 217.284 446.872 220.704 448.606C227.017 451.8 233.22 455.352 239.821 457.806C246.76 460.384 253.732 459.915 259.713 454.556C265.56 449.317 266.46 442.949 264.692 435.722C263.757 431.893 262.146 428.396 260.214 425.019C256.657 418.797 257.636 416.04 264.502 413.724C266.664 412.995 268.96 412.418 271.226 412.287C276.115 412.004 277.921 414.461 276.671 419.176C275.494 423.611 274.16 428.02 273.266 432.514C271.063 443.579 273.956 448.748 284.7 452.222C295.573 455.739 306.83 457.161 318.247 456.433C324.161 456.057 329.836 454.259 334.337 450.238C342.934 442.556 345.609 434.953 339.674 425.01C337.501 421.37 335.488 417.629 333.18 414.076C329.329 408.149 328.047 401.756 329.212 394.852C330.861 385.096 333.218 375.497 336.146 366.049C341.384 349.138 346.13 332.149 345.611 314.21C345.611 313.152 345.649 312.091 345.606 311.034C344.877 293.549 341.276 276.344 340.402 258.889C340.263 256.079 340.097 253.285 339.837 250.516C345.574 242.293 347.901 231.076 344.411 218.004C349.192 217.266 354.311 216.48 356.734 211.884C359.549 206.548 364.015 204.205 369.212 201.979C387.633 194.087 404.676 184.054 416.792 167.56C425.756 155.374 424.716 141.712 414.706 133.803ZM108.702 375.977C107.694 376.957 106.564 377.869 105.349 378.562C94.0457 385.023 90.0021 394.497 92.9445 407.158C94.0311 411.827 92.1025 415.364 87.7297 417.611C84.2803 419.383 81.0786 420.91 79.823 414.717C76.4494 418.322 75.4065 422.224 74.145 426.007C72.4728 431.022 71.0598 436.136 68.5049 440.813C66.7977 443.937 64.3156 445.814 60.6798 444.328C53.8568 441.536 46.629 440.965 39.4506 440.05C35.7449 439.578 32.1645 438.602 28.7734 437.048C25.9154 435.74 23.6809 433.901 23.512 430.39C23.4158 428.388 22.7603 427.003 20.488 426.068C16.9979 424.628 17.9592 422.274 20.4676 420.549C23.882 418.2 27.9198 417.262 31.8935 416.489C46.7775 413.593 56.3069 404.574 62.0636 390.973C70.5034 371.032 80.8893 352.289 95.9248 336.392C100.918 331.115 104.589 324.814 108.871 318.989C109.751 317.791 110.48 315.859 112.452 316.442C114.101 316.929 113.673 318.843 114.008 320.102C116.321 328.786 118.526 337.499 120.694 346.219C123.872 358.991 117.093 367.827 108.702 375.977ZM171.834 147.637C172.271 147.179 172.731 146.733 173.209 146.302C193.182 150.087 215.317 158.667 237.84 171.366C236.724 172.514 235.576 173.692 234.376 174.872C211.705 162.161 190.164 153.692 170.141 149.621C170.654 148.951 171.213 148.286 171.834 147.637ZM275.896 211.176C291.325 220.889 306.492 232.618 324.601 248.817C323.934 249.292 323.243 249.732 322.521 250.135C322.258 250.28 321.99 250.42 321.722 250.557C320.05 249.22 318.101 247.652 315.989 245.95C304.45 236.663 287.182 222.768 275.824 214.909C275.911 213.664 275.934 212.414 275.896 211.176ZM281.461 175.143C291.258 181.187 300.572 187.341 308.476 193.009C321.087 202.058 326.308 207.186 327.348 208.681C328.773 211.173 329.961 213.624 330.923 216.031C321.696 208.192 312.802 201.463 301.536 193.799C301.006 193.286 300.318 192.671 299.38 192.048L299.194 191.928C295.835 189.868 292.622 187.761 289.513 185.721C287.066 184.115 284.534 182.454 281.956 180.834L281.536 181.496C281.749 179.395 281.764 177.256 281.461 175.143ZM282.798 195.894C285.944 197.957 289.196 200.091 292.665 202.224C292.826 202.337 292.974 202.483 293.318 202.827L293.726 203.232L294.201 203.555C305.79 211.421 314.76 218.231 324.193 226.32L324.231 226.353C325.285 227.241 326.337 228.101 327.357 228.934C329.268 230.496 331.077 231.977 332.877 233.614C333.099 233.874 333.314 234.098 333.518 234.302C333.239 236.024 332.787 237.665 332.164 239.224C311.841 221.09 295.025 208.375 277.382 197.783C277.77 196.495 278.175 195.218 278.579 193.948C278.649 193.729 278.719 193.505 278.792 193.28C280.109 194.131 281.432 195 282.798 195.894ZM304.455 252.32C300.383 251.291 296.441 249.289 292.82 246.378C289.6 243.791 286.643 240.495 284.036 236.587C283.847 236.301 283.657 236.016 283.471 235.724C290.574 241.194 298.087 247.2 304.455 252.32ZM292.957 260.923C289.997 268.779 284.051 272.596 275.809 273.427C269.621 274.051 263.628 275.245 257.744 277.414C243.576 282.636 240.517 280.325 241.557 265.332C241.878 260.71 240.608 257.009 237.231 253.949C234.446 251.425 232.238 248.453 230.466 245.172C227.469 239.612 228.238 237.181 233.767 234.005C239.145 230.913 245.082 230.257 251.113 229.631C258.038 228.911 262.498 224.954 263.5 219.391C263.853 221.206 264.336 223.06 264.983 224.954C271.398 243.723 281.758 255.228 292.957 260.923ZM233.811 203.943C233.892 202.294 235.681 201.947 236.96 201.542C238.627 201.011 240.401 200.819 241.438 200.615C248.555 200.755 254.699 205.208 256.182 210.855C256.392 211.651 256.674 212.752 256.307 213.303C255.556 214.434 254.455 213.662 253.49 213.257C247.958 210.937 242.399 208.676 236.896 206.286C235.71 205.773 233.718 205.779 233.811 203.943ZM262.752 211.301C258.894 199.648 244.887 190.832 232.634 192.269C236.829 189.352 240.331 186.149 243.396 183.107C243.999 183.396 244.59 183.664 245.173 183.906C252.925 187.12 263.803 179.508 264.054 170.836C264.552 171.054 265.059 171.314 265.577 171.634C275.925 178.01 262.845 191.899 262.752 211.301ZM261.572 172.118C258.632 177.76 253.656 179.077 247.771 179.062C247.637 179.062 247.506 179.057 247.372 179.057C252.322 173.96 256.229 170.072 260.651 170.075C261.508 170.075 262.387 170.227 263.293 170.539C262.469 170.716 261.948 171.395 261.572 172.118ZM247.209 162.685C232.713 154.275 212.899 144.376 191.242 138.119C193.29 137.723 195.44 137.423 197.683 137.225C197.902 137.204 198.152 137.195 198.432 137.195C200.981 137.195 208.864 138.046 226.953 145.929C235.037 149.452 244.112 153.919 253.732 159.104C251.381 159.957 249.231 161.202 247.209 162.685ZM165.628 161.146C183.775 164.553 203.431 171.952 224.261 183.209C222.376 184.427 220.346 185.552 218.14 186.531C206.076 179.686 182.435 170.154 165.748 167.205C165.637 166.403 165.561 165.596 165.526 164.786C165.477 163.679 165.497 162.452 165.628 161.146ZM200.73 191.474C199.102 191.657 197.503 191.75 195.938 191.75C184.792 191.75 177.78 187.137 173.855 183.267C173.145 182.565 172.472 181.825 171.842 181.053C181.203 183.568 191.929 187.56 200.73 191.474ZM255.803 443.885C253.313 447.154 250.621 450.144 246.819 451.904C240.392 454.877 236.611 453.455 234.74 446.662C233.391 441.763 232.016 439.764 226.548 442.6C220.707 445.63 217.511 441.982 217.584 432.24C218.831 425.616 214.309 420.729 209.549 416.169C205.942 412.713 206.365 410.451 210.239 407.473C216.104 402.971 222.242 400.357 229.817 401.085C235.492 401.63 239.99 403.822 243.265 408.435C247.55 414.476 251.597 420.697 256.083 426.587C260.654 432.578 260.182 438.138 255.803 443.885ZM337.952 295.373C338.8 324.261 333.877 352.3 325.507 379.85C324.28 383.892 323.631 388.106 322.69 392.235C320.458 402.027 321.696 410.993 327.934 419.307C331.843 424.521 335.281 430.334 334.643 437.284C334.337 440.601 334.908 445.505 328.51 443.183C326.5 442.454 326.323 445.059 325.431 446.204C321.926 450.715 320.414 450.771 317.052 446.321C312.988 440.942 312.988 440.942 307.587 445.66C303.771 448.993 301.74 448.55 299.564 443.896C299.34 443.419 299.179 442.909 298.973 442.422C295.244 433.595 295.244 433.595 288.368 439.805C284.418 443.372 281 442.416 280.062 437.133C278.961 430.946 279.139 424.658 280.692 418.707C285.752 407.578 303.226 413.974 305.408 411.865C305.912 411.378 305.825 410.55 305.111 410.209C302.926 409.16 290.195 407.936 284.196 407.861C286.853 398.066 287.252 388.208 285.834 377.834C283.989 364.344 286.145 351.068 292.464 338.723C293 337.677 294.177 336.526 292.796 335.474C291.855 334.757 290.76 335.643 289.88 336.13C286.92 337.771 285.193 340.253 284.657 343.657C283.943 348.197 282.853 352.662 281.108 356.931C276.808 367.445 269.493 374.459 258.032 376.747C250.396 378.271 242.83 380.15 235.174 381.552C209.59 386.241 186.607 373.259 177.22 348.975C176.139 346.178 175.073 343.371 173.896 340.615C172.865 338.202 171.07 336.363 168.422 336.101C165.87 335.847 162.68 334.915 160.984 337.456C159.204 340.119 161.888 342.145 163.493 343.724C175.047 355.095 175.86 368.812 172.754 383.548C170.858 392.547 170.866 401.397 173.305 410.087C166.345 408.018 155.49 405.177 153.311 405.765C152.501 405.984 152.247 406.832 152.679 407.438C154.479 409.968 171.595 411.964 176.518 419.258C177.949 424.34 177.544 429.416 174.817 434.577C171.015 441.778 171.306 441.929 164.827 437.905C161.608 445.33 159.268 446.851 152.987 446.691C144.664 446.478 143.822 440.662 143.971 433.537C140.985 435.856 140.874 438.549 139.546 440.502C137.745 443.148 135.776 445.674 132.262 443.707C128.857 441.798 126.139 438.977 128.05 434.641C129.541 431.255 132.411 428.181 126.293 426.266C124.391 425.672 124.912 423.145 125.739 421.539C136.417 400.756 134.616 379.302 129.728 357.493C124.903 335.972 123.779 314.137 126.171 292.206C126.814 286.307 126.179 279.599 133.145 276.175C134.797 275.362 134.071 273.337 133.736 271.789C131.336 260.605 133.221 250.065 138.549 240.046C146.916 224.316 154.112 207.9 165.739 194.079C166.001 193.767 166.266 193.438 166.514 193.1C173.75 199.656 183.737 203.928 195.941 203.928C203.964 203.928 212.955 202.078 222.738 197.82C223.067 197.678 223.39 197.532 223.713 197.383C222.813 199.219 222.682 201.454 223.507 203.937C225.354 209.5 225.121 215.049 224.89 220.676C224.89 222.969 224.94 225.266 224.882 227.556C224.701 234.78 223.923 235.643 216.722 236.132C209.648 236.61 202.65 237.607 195.653 238.711C176.646 241.713 170.019 236.706 167.621 219.988C167.449 218.799 167.394 217.173 165.89 217.089C164.008 216.984 163.717 218.787 163.705 220.131C163.601 231.717 165.684 240.623 179.105 243.791C184.935 245.166 188.133 248.144 189.666 253.442C193.267 265.882 202.54 271.463 214.42 273.721C217.141 274.237 221.365 275.846 222.248 272.054C223.18 268.062 218.636 267.669 215.807 266.509C215.644 266.442 215.472 266.357 215.3 266.352C204.972 266.15 201.537 258.524 198.243 250.697C196.774 247.212 198.109 244.956 201.156 243.272C207.151 239.956 221.464 241.515 226.184 246.533C232.325 253.066 237.016 260.314 236.966 269.945C236.908 280.84 241.383 284.763 252.118 283.798C263.984 282.735 275.41 279.48 286.853 276.388C288.802 275.86 290.46 274.767 291.573 273.133C293.839 269.796 296.088 266.454 298.512 263.254C302.62 264.635 306.774 265.294 310.824 265.294C319.529 265.294 327.759 262.257 334.075 256.869C334.608 266.599 331.733 276.309 325.851 285.987C324.406 288.365 320.948 291.092 323.835 293.794C326.343 296.142 328.889 292.783 331.29 291.55C332.968 290.687 334.57 288.936 336.586 290.049C338.672 291.197 337.897 293.517 337.952 295.373ZM388.335 135.176C388.087 136.723 387.138 137.825 385.547 137.933C383.615 138.064 381.661 137.976 379.72 137.889C369.763 137.44 359.965 137.653 350.453 141.462C336.831 146.917 333.469 151.728 334.273 166.322C334.573 171.783 335.01 177.238 335.424 182.69C335.84 188.181 335.654 193.534 334.826 198.738C332.726 196.57 329.795 193.988 326.197 191.103C324.694 186.817 320.878 183.92 316.111 183.483C282.914 159.573 222.027 125.017 198.432 125.017C197.797 125.017 197.191 125.044 196.611 125.093C193.302 125.384 190.202 125.859 187.297 126.495C187.201 123.231 187.825 120.209 189.345 117.464C189.555 117.085 189.782 116.715 190.024 116.348C190.645 115.235 191.475 114.381 192.416 113.661C192.731 113.422 193.057 113.195 193.392 112.979C193.695 112.822 194.01 112.664 194.327 112.501C194.648 112.341 194.974 112.175 195.309 112.006C196.046 111.563 196.821 111.158 197.599 110.75C197.989 110.546 198.379 110.342 198.767 110.135C200.506 109.526 204.13 108.127 207.166 106.143C209.89 104.741 212.203 102.73 215.37 102.381C215.868 102.223 216.325 102.092 216.748 101.99C217.135 101.78 217.566 101.792 217.986 101.809C218.405 101.827 218.819 101.85 219.172 101.661C219.55 101.6 219.932 101.535 220.319 101.463C220.707 101.39 221.1 101.311 221.511 101.224C221.965 101.101 222.414 100.958 222.857 100.795C224.622 100.137 226.286 99.1429 227.85 97.8753C232.972 93.7198 236.855 88.4307 241.027 83.4184C242.044 82.1974 244.005 80.7928 242.259 78.9132C240.646 77.1764 238.519 77.1356 236.401 78.1963C233.097 79.8515 230.813 82.617 229.118 85.7002C227.757 88.1772 226.181 90.1471 224.194 91.4089C223.798 91.6624 223.384 91.8868 222.953 92.0791C220.823 93.0525 218.44 92.9009 216.191 93.2564C215.816 93.3147 215.446 93.3905 215.081 93.4837C214.778 93.5799 214.478 93.6848 214.178 93.7985C213.878 93.9121 213.578 94.0374 213.278 94.1686C211.361 95.5265 208.809 96.494 206.694 97.8578C204.658 98.6388 202.65 99.6791 202.114 100.09C201.794 100.268 197.208 102.55 196.885 102.724C196.562 102.899 196.238 103.062 195.915 103.208C194.974 103.441 194.036 103.677 193.095 103.677C192.626 103.677 192.154 103.619 191.699 103.555C191.245 103.491 190.802 103.424 190.388 103.406C190.03 103.31 189.666 103.176 189.29 102.911C188.838 102.564 188.474 102.232 188.198 101.906C186.528 99.956 187.842 98.3212 192.192 95.9054C197.098 93.1807 198.86 89.71 198.356 83.8643C196.031 56.903 208.384 36.6557 228.8 20.4183C231.903 17.9501 241.042 16.0238 241.607 17.6179C242.149 19.1419 237.013 25.2353 234.496 26.4971C224.707 31.4103 218.251 39.3892 213.534 48.9562C212.856 50.3345 211.029 52.1937 213.561 53.4352C215.405 54.3414 217.462 53.339 218.009 51.6138C222.516 37.4134 238.938 33.9281 245.225 21.345C246.501 18.7893 248.683 20.3338 250.306 21.1789C257.059 24.705 261.464 30.472 264.319 37.2648C272.482 56.6727 273.778 76.2235 264.532 95.7276C263.221 98.4931 262.661 100.443 266.44 101.812C283.695 108.057 298.428 118.312 311.774 130.7C313.976 132.746 316.304 134.66 318.442 136.764C323.109 141.357 328.062 143.289 333.935 138.856C334.349 138.545 334.879 138.262 335.38 138.212C351.196 136.613 365.903 127.456 382.517 131.306C383.714 131.583 384.926 131.804 386.118 132.11C387.685 132.521 388.606 133.489 388.335 135.176Z" fill="url(#paint0_linear)"/>
</g>
<defs>
<filter id="filter0_d" x="-0.000976562" y="0" width="442.914" height="484.324" filterUnits="userSpaceOnUse" color-interpolation-filters="sRGB">
<feFlood flood-opacity="0" result="BackgroundImageFix"/>
<feColorMatrix in="SourceAlpha" type="matrix" values="0 0 0 0 0 0 0 0 0 0 0 0 0 0 0 0 0 0 127 0"/>
<feOffset dx="5" dy="10"/>
<feGaussianBlur stdDeviation="7.5"/>
<feColorMatrix type="matrix" values="0 0 0 0 0.415686 0 0 0 0 0.415686 0 0 0 0 0.352941 0 0 0 0.5 0"/>
<feBlend mode="normal" in2="BackgroundImageFix" result="effect1_dropShadow"/>
<feBlend mode="normal" in="SourceGraphic" in2="effect1_dropShadow" result="shape"/>
</filter>
<linearGradient id="paint0_linear" x1="128.752" y1="61.3644" x2="324.553" y2="487.414" gradientUnits="userSpaceOnUse">
<stop stop-color="#252632"/>
<stop offset="1" stop-color="#785131"/>
</linearGradient>
</defs>
</svg>
